<svg class="mudar_cor_botoes" width="16" height="16" viewBox="0 0 437 437" hover="white"
                    xmlns="http://www.w3.org/2000/svg">
                    <title>Repetir</title>
                    <g clip-path="url(#clip0_9_16)">
                        <path
                            d="M0 129.734C0 102.57 10.7908 76.519 29.9987 57.3112C49.2065 38.1033 75.2579 27.3125 102.422 27.3125H334.578C361.742 27.3125 387.793 38.1033 407.001 57.3112C426.209 76.519 437 102.57 437 129.734V266.297C437 293.461 426.209 319.512 407.001 338.72C387.793 357.928 361.742 368.719 334.578 368.719H267.936L295.74 396.523C297.752 398.398 299.367 400.66 300.486 403.172C301.606 405.685 302.208 408.398 302.256 411.148C302.305 413.899 301.799 416.631 300.769 419.181C299.738 421.732 298.205 424.049 296.26 425.994C294.315 427.939 291.998 429.473 289.447 430.503C286.896 431.533 284.164 432.039 281.414 431.991C278.663 431.942 275.951 431.34 273.438 430.221C270.925 429.101 268.664 427.487 266.788 425.474L189.521 348.234L266.788 270.995C268.664 268.982 270.925 267.368 273.438 266.248C275.951 265.129 278.663 264.527 281.414 264.478C284.164 264.43 286.896 264.936 289.447 265.966C291.998 266.996 294.315 268.529 296.26 270.475C298.205 272.42 299.738 274.737 300.769 277.287C301.799 279.838 302.305 282.57 302.256 285.321C302.208 288.071 301.606 290.784 300.486 293.296C299.367 295.809 297.752 298.071 295.74 299.946L267.963 327.75H334.578C350.877 327.75 366.507 321.275 378.032 309.751C389.557 298.226 396.031 282.595 396.031 266.297V129.734C396.031 113.436 389.557 97.8051 378.032 86.2805C366.507 74.7558 350.877 68.2813 334.578 68.2812H102.422C86.1235 68.2813 70.4926 74.7558 58.968 86.2805C47.4433 97.8051 40.9688 113.436 40.9688 129.734V266.297C40.9688 282.595 47.4433 298.226 58.968 309.751C70.4926 321.275 86.1235 327.75 102.422 327.75H136.562V368.719H102.422C75.2579 368.719 49.2065 357.928 29.9987 338.72C10.7908 319.512 0 293.461 0 266.297L0 129.734Z"
                            fill="hsla(0,0%,100%,.7)" />
                    </g>
                    <defs>
                        <clipPath id="clip0_9_16">
                            <rect width="437" height="437" />
                        </clipPath>
                    </defs>
                </svg>
