 <svg class="mudar_cor_botoes" width="16" height="16" viewBox="0 0 437 437" fill="none"
xmlns="http://www.w3.org/2000/svg">
<path
 d="M346.869 27.3125C341.798 27.3125 336.935 29.3268 333.35 32.9123C329.764 36.4977 327.75 41.3606 327.75 46.4313V187.091L55.9906 30.2349C53.0867 28.5583 49.7928 27.675 46.4396 27.6735C43.0863 27.672 39.7917 28.5525 36.8863 30.2266C33.9808 31.9007 31.5668 34.3095 29.8864 37.2113C28.206 40.1131 27.3183 43.4058 27.3125 46.759V390.214C27.3088 393.572 28.1894 396.871 29.8659 399.781C31.5424 402.69 33.9556 405.106 36.8626 406.787C39.7697 408.468 43.0681 409.353 46.4259 409.354C49.7838 409.355 53.0827 408.471 55.9906 406.792L327.75 249.882V390.569C327.75 395.639 329.764 400.502 333.35 404.088C336.935 407.673 341.798 409.688 346.869 409.688H390.569C395.639 409.688 400.502 407.673 404.088 404.088C407.673 400.502 409.688 395.639 409.688 390.569V46.4313C409.687 41.3606 407.673 36.4977 404.088 32.9123C400.502 29.3268 395.639 27.3125 390.569 27.3125H346.869Z"
fill="hsla(0,0%,100%,0.7)" />
<title>Avançar</title>
</svg>