<svg class="mudar_cor_botoes" width="16" height="16" viewBox="0 0 436 436" fill="none"
xmlns="http://www.w3.org/2000/svg">
<title>Voltar</title>
<path
d="M89.925 27.25C94.984 27.25 99.8358 29.2597 103.413 32.8369C106.99 36.4142 109 41.266 109 46.325V186.662L380.137 30.1385C383.037 28.4646 386.326 27.5832 389.674 27.5829C393.021 27.5827 396.31 28.4635 399.21 30.137C402.11 31.8105 404.518 34.2176 406.192 37.1166C407.867 40.0155 408.749 43.3041 408.75 46.652V389.321C408.754 392.671 407.875 395.963 406.202 398.866C404.53 401.768 402.122 404.179 399.222 405.856C396.321 407.533 393.031 408.416 389.68 408.417C386.33 408.418 383.039 407.537 380.137 405.862L109 249.31V389.675C109 394.734 106.99 399.586 103.413 403.163C99.8358 406.74 94.984 408.75 89.925 408.75H46.325C41.266 408.75 36.4142 406.74 32.8369 403.163C29.2597 399.586 27.25 394.734 27.25 389.675V46.325C27.25 41.266 29.2597 36.4142 32.8369 32.8369C36.4142 29.2597 41.266 27.25 46.325 27.25H89.925Z"
fill=" hsla(0,0%,100%,.7)" />
</svg>