<svg width="16" viewBox="0 0 436 387" fill="none" xmlns="http://www.w3.org/2000/svg">
<path d="M358.365 25.1245C356.494 23.1165 354.237 21.506 351.73 20.389C349.223 19.2719 346.517 18.6713 343.773 18.6229C341.029 18.5745 338.303 19.0792 335.758 20.1071C333.213 21.135 330.902 22.665 328.961 24.6057C327.02 26.5464 325.49 28.8581 324.462 31.403C323.435 33.9478 322.93 36.6736 322.978 39.4177C323.027 42.1619 323.627 44.8682 324.744 47.3752C325.861 49.8821 327.472 52.1385 329.48 54.0095L357.22 81.75H304.11C289.186 81.7502 274.443 85.0194 260.917 91.3278C247.392 97.6363 235.412 106.831 225.821 118.265L57.6065 318.716C51.8511 325.577 44.6625 331.094 36.5462 334.879C28.4299 338.665 19.583 340.626 10.6275 340.625H0V381.5H10.6548C25.5791 381.5 40.3222 378.231 53.8477 371.922C67.3731 365.614 79.3526 356.419 88.944 344.985L257.158 144.534C262.914 137.673 270.102 132.156 278.219 128.371C286.335 124.585 295.182 122.624 304.137 122.625H357.193L329.48 150.365C325.87 154.24 323.904 159.364 323.998 164.659C324.091 169.953 326.236 175.005 329.981 178.75C333.725 182.494 338.777 184.639 344.072 184.732C349.366 184.826 354.49 182.861 358.365 179.25L435.455 102.187L358.337 25.1245H358.365ZM10.6548 95.375H0V54.5H10.6548C40.875 54.5 69.5147 67.8525 88.944 91.015L133.252 143.798L106.575 175.599L57.6338 117.284C51.8754 110.419 44.6824 104.9 36.5611 101.115C28.4398 97.3296 19.5876 95.3703 10.6275 95.375H10.6548Z" fill="hsla(0,0%,100%,.7)"/>
<path d="M204.375 292.202L231.08 260.401L257.158 291.466C262.914 298.327 270.102 303.844 278.219 307.629C286.335 311.415 295.182 313.376 304.137 313.375H357.193L329.48 285.635C327.472 283.764 325.861 281.507 324.744 279C323.627 276.493 323.027 273.787 322.978 271.043C322.93 268.299 323.435 265.573 324.462 263.028C325.49 260.483 327.02 258.171 328.961 256.231C330.902 254.29 333.213 252.76 335.758 251.732C338.303 250.704 341.029 250.2 343.773 250.248C346.517 250.296 349.223 250.897 351.73 252.014C354.237 253.131 356.494 254.742 358.365 256.75L435.455 333.813L358.365 410.876C356.494 412.884 354.237 414.494 351.73 415.611C349.223 416.728 346.517 417.329 343.773 417.377C341.029 417.426 338.303 416.921 335.758 415.893C333.213 414.865 330.902 413.335 328.961 411.394C327.02 409.454 325.49 407.142 324.462 404.597C323.435 402.052 322.93 399.326 322.978 396.582C323.027 393.838 323.627 391.132 324.744 388.625C325.861 386.118 327.472 383.862 329.48 381.991L357.22 354.25H304.11C289.186 354.25 274.443 350.981 260.917 344.672C247.392 338.364 235.412 329.169 225.821 317.735L204.375 292.175V292.202Z" fill="hsla(0,0%,100%,.7)"/>
</svg>
