<svg width="16" height="16" viewBox="0 0 436 436" fill="black" xmlns="http://www.w3.org/2000/svg">
<path
d="M81.75 46.6793C81.7463 43.3291 82.6249 40.037 84.2976 37.1343C85.9702 34.2315 88.3779 31.8205 91.2783 30.1438C94.1787 28.4671 97.4695 27.5839 100.82 27.5829C104.17 27.582 107.461 28.4634 110.363 30.1385L407.115 201.487C410.012 203.161 412.417 205.569 414.09 208.468C415.762 211.366 416.642 214.654 416.642 218C416.642 221.346 415.762 224.634 414.09 227.532C412.417 230.431 410.012 232.839 407.115 234.513L110.363 405.862C107.463 407.535 104.174 408.417 100.826 408.417C97.4786 408.417 94.1897 407.536 91.2901 405.863C88.3905 404.19 85.9824 401.782 84.3078 398.883C82.6332 395.984 81.7511 392.696 81.75 389.348V46.6793Z"
fill="black" />
<title>Play</title>
</svg>