<svg width="330" height="330" viewBox="0 0 330 330" fill="none" xmlns="http://www.w3.org/2000/svg">
<path d="M324.307 87.0375C320.743 69.3125 311.861 53.0946 298.847 40.5445C285.832 27.9943 269.303 19.7077 251.46 16.7887C238.054 14.6518 224.336 15.6435 211.377 19.6865C198.417 23.7295 186.569 30.7143 176.756 40.095C173.562 43.0655 169.362 44.7167 165 44.7167C160.638 44.7167 156.438 43.0655 153.244 40.095C136.952 24.337 115.214 15.4634 92.5489 15.3188C69.8836 15.1741 48.0344 23.7695 31.5428 39.3183C15.0513 54.8671 5.18605 76.1732 3.99779 98.8078C2.80954 121.442 10.3896 143.664 25.1625 160.854L147.18 306.261C149.364 308.859 152.09 310.948 155.166 312.381C158.243 313.814 161.596 314.556 164.99 314.556C168.384 314.556 171.737 313.814 174.813 312.381C177.89 310.948 180.616 308.859 182.799 306.261L304.817 160.854C313.445 150.839 319.684 138.993 323.06 126.212C326.437 113.43 326.863 100.049 324.307 87.0788V87.0375Z" fill="white"/>
</svg>
